HIERARCHY
ROOT hip
{
  OFFSET -180.458 65.1186 185.384
  CHANNELS 6 Xposition Yposition Zposition Zrotation Xrotation Yrotation
  JOINT abdomen
  {
    OFFSET 0 20.6881 -0.73152
    CHANNELS 3 Zrotation Xrotation Yrotation
    JOINT chest
    {
      OFFSET 0 11.7043 -0.48768
      CHANNELS 3 Zrotation Xrotation Yrotation
      JOINT neck
      {
        OFFSET 0 22.1894 -2.19456
        CHANNELS 3 Zrotation Xrotation Yrotation
        JOINT head
        {
          OFFSET -0.24384 7.07133 1.2192
          CHANNELS 3 Zrotation Xrotation Yrotation
          JOINT leftEye
          {
            OFFSET 4.14528 8.04674 8.04672
            CHANNELS 3 Zrotation Xrotation Yrotation
            End Site
            {
              OFFSET 1 0 0
            }
          }
          JOINT rightEye
          {
            OFFSET -3.6576 8.04674 8.04672
            CHANNELS 3 Zrotation Xrotation Yrotation
            End Site
            {
              OFFSET 1 0 0
            }
          }
        }
      }
      JOINT rCollar
      {
        OFFSET -2.68224 19.2634 -4.8768
        CHANNELS 3 Zrotation Xrotation Yrotation
        JOINT rShldr
        {
          OFFSET -8.77824 -1.95073 1.46304
          CHANNELS 3 Zrotation Xrotation Yrotation
          JOINT rForeArm
          {
            OFFSET -28.1742 -1.7115 0.48768
            CHANNELS 3 Zrotation Xrotation Yrotation
            JOINT rHand
            {
              OFFSET -22.5879 0.773209 7.07136
              CHANNELS 3 Zrotation Xrotation Yrotation
              JOINT rThumb1
              {
                OFFSET -1.2192 -0.487915 3.41376
                CHANNELS 3 Zrotation Xrotation Yrotation
                JOINT rThumb2
                {
                  OFFSET -3.37035 -0.52449 3.41376
                  CHANNELS 3 Zrotation Xrotation Yrotation
                  End Site
                  {
                    OFFSET -1.78271 -1.18214 1.43049
                  }
                }
              }
              JOINT rIndex1
              {
                OFFSET -7.75947 0.938293 5.60832
                CHANNELS 3 Zrotation Xrotation Yrotation
                JOINT rIndex2
                {
                  OFFSET -2.54057 -0.884171 1.56538
                  CHANNELS 3 Zrotation Xrotation Yrotation
                  End Site
                  {
                    OFFSET -1.62519 -0.234802 1.16502
                  }
                }
              }
              JOINT rMid1
              {
                OFFSET -8.24714 1.18213 3.41376
                CHANNELS 3 Zrotation Xrotation Yrotation
                JOINT rMid2
                {
                  OFFSET -3.10165 -0.590103 1.0647
                  CHANNELS 3 Zrotation Xrotation Yrotation
                  End Site
                  {
                    OFFSET -2.48547 -0.328903 0.83742
                  }
                }
              }
              JOINT rRing1
              {
                OFFSET -8.82822 0.546677 1.51678
                CHANNELS 3 Zrotation Xrotation Yrotation
                JOINT rRing2
                {
                  OFFSET -2.60934 -0.819778 -0.0198488
                  CHANNELS 3 Zrotation Xrotation Yrotation
                  End Site
                  {
                    OFFSET -2.33842 -0.294052 0.168128
                  }
                }
              }
              JOINT rPinky1
              {
                OFFSET -8.27202 -0.0477905 -0.4584
                CHANNELS 3 Zrotation Xrotation Yrotation
                JOINT rPinky2
                {
                  OFFSET -1.82734 -0.647385 -0.700984
                  CHANNELS 3 Zrotation Xrotation Yrotation
                  End Site
                  {
                    OFFSET -1.69225 -0.51767 -0.607171
                  }
                }
              }
            }
          }
        }
      }
      JOINT lCollar
      {
        OFFSET 2.68224 19.2634 -4.8768
        CHANNELS 3 Zrotation Xrotation Yrotation
        JOINT lShldr
        {
          OFFSET 8.77824 -1.95073 1.46304
          CHANNELS 3 Zrotation Xrotation Yrotation
          JOINT lForeArm
          {
            OFFSET 28.1742 -1.7115 0.48768
            CHANNELS 3 Zrotation Xrotation Yrotation
            JOINT lHand
            {
              OFFSET 22.5879 0.773209 7.07136
              CHANNELS 3 Zrotation Xrotation Yrotation
              JOINT lThumb1
              {
                OFFSET 1.2192 -0.487915 3.41376
                CHANNELS 3 Zrotation Xrotation Yrotation
                JOINT lThumb2
                {
                  OFFSET 3.37035 -0.52449 3.41376
                  CHANNELS 3 Zrotation Xrotation Yrotation
                  End Site
                  {
                    OFFSET 1.78271 -1.18214 1.43049
                  }
                }
              }
              JOINT lIndex1
              {
                OFFSET 7.75947 0.938293 5.60832
                CHANNELS 3 Zrotation Xrotation Yrotation
                JOINT lIndex2
                {
                  OFFSET 2.54057 -0.884171 1.56538
                  CHANNELS 3 Zrotation Xrotation Yrotation
                  End Site
                  {
                    OFFSET 1.62519 -0.234802 1.16502
                  }
                }
              }
              JOINT lMid1
              {
                OFFSET 8.24714 1.18213 3.41376
                CHANNELS 3 Zrotation Xrotation Yrotation
                JOINT lMid2
                {
                  OFFSET 3.10165 -0.590103 1.0647
                  CHANNELS 3 Zrotation Xrotation Yrotation
                  End Site
                  {
                    OFFSET 2.48547 -0.328903 0.83742
                  }
                }
              }
              JOINT lRing1
              {
                OFFSET 8.82822 0.546677 1.51678
                CHANNELS 3 Zrotation Xrotation Yrotation
                JOINT lRing2
                {
                  OFFSET 2.60934 -0.819778 -0.0198488
                  CHANNELS 3 Zrotation Xrotation Yrotation
                  End Site
                  {
                    OFFSET 2.33842 -0.294052 0.168128
                  }
                }
              }
              JOINT lPinky1
              {
                OFFSET 8.27202 -0.0477905 -0.4584
                CHANNELS 3 Zrotation Xrotation Yrotation
                JOINT lPinky2
                {
                  OFFSET 1.82734 -0.647385 -0.700984
                  CHANNELS 3 Zrotation Xrotation Yrotation
                  End Site
                  {
                    OFFSET 1.69225 -0.51767 -0.607171
                  }
                }
              }
            }
          }
        }
      }
    }
  }
  JOINT rButtock
  {
    OFFSET -8.77824 4.35084 1.2192
    CHANNELS 3 Zrotation Xrotation Yrotation
    JOINT rThigh
    {
      OFFSET 0 -1.70687 -2.19456
      CHANNELS 3 Zrotation Xrotation Yrotation
      JOINT rShin
      {
        OFFSET 0 -36.8199 0.73152
        CHANNELS 3 Zrotation Xrotation Yrotation
        JOINT rFoot
        {
          OFFSET 0.73152 -45.1104 -5.12064
          CHANNELS 3 Zrotation Xrotation Yrotation
          End Site
          {
            OFFSET -1.1221 -3.69964 12.103
          }
        }
      }
    }
  }
  JOINT lButtock
  {
    OFFSET 8.77824 4.35084 1.2192
    CHANNELS 3 Zrotation Xrotation Yrotation
    JOINT lThigh
    {
      OFFSET 0 -1.70687 -2.19456
      CHANNELS 3 Zrotation Xrotation Yrotation
      JOINT lShin
      {
        OFFSET 0 -36.8199 0.73152
        CHANNELS 3 Zrotation Xrotation Yrotation
        JOINT lFoot
        {
          OFFSET -0.73152 -45.1104 -5.12064
          CHANNELS 3 Zrotation Xrotation Yrotation
          End Site
          {
            OFFSET 1.1221 -3.69964 12.103
          }
        }
      }
    }
  }
}
MOTION
Frames:	8
Frame Time:	0.00833333
-10.1094 69.8631 -9.80337 18.1074 2.45404 -34.7384 -11.2037 19.7604 -2.75739 1.62511 -8.51651 -1.19556 -6.20442 -1.67122 -4.19009 7.53132 -21.1076 -5.173 -0 0 0 -0 0 0 1.36775e-013 -1.11338e-013 -9.76381e-013 98.0158 33.1243 -31.4349 -27.8616 -29.8433 66.9988 -0.477172 -19.2501 -2.81318 1.31266e-009 -7.74646e-010 4.15057e-009 2.21645e-009 -1.30613e-009 7.17756e-009 1.31267e-009 -7.74646e-010 4.15055e-009 7.73091 5.47488 0.417314 1.31265e-009 -7.74646e-010 4.15056e-009 2.90554 0.965183 0.102902 1.31266e-009 -7.74646e-010 4.15057e-009 10.2786 0.731801 0.0259123 1.31265e-009 -7.74646e-010 4.15058e-009 2.22167 -0.733487 -0.20892 1.36712e-013 -1.11302e-013 -9.7653e-013 -84.7393 47.2074 3.19473 26.7877 -44.5608 -92.5672 0.217434 -13.1659 1.88396 2.0007e-009 -7.48294e-009 -3.13612e-009 3.49577e-009 -1.2899e-008 -5.40635e-009 2.00069e-009 -7.48296e-009 -3.13611e-009 -7.73091 5.47488 -0.417314 2.0007e-009 -7.48295e-009 -3.13612e-009 -2.90554 0.965183 -0.102902 2.00069e-009 -7.48295e-009 -3.13611e-009 -10.2786 0.731801 -0.0259123 2.00071e-009 -7.48294e-009 -3.13611e-009 -2.22167 -0.733487 0.20892 -2.03217e-016 0 -3.88251e-019 -30.9836 -65.2709 -36.6337 -172.515 80.1908 172.69 -0.910721 5.09747 -2.82362 2.03217e-016 0 3.88251e-019 -3.60292 -29.0663 -5.6436 1.01772 58.7431 -1.34093 -1.55448 -22.03 -4.15857 
-12.2357 70.1269 -6.93851 18.0041 2.33502 -35.3007 -10.898 19.5716 -3.48366 1.88016 -8.34552 -1.34965 -5.90826 -1.96619 -3.69866 7.21786 -20.786 -4.31772 -0 0 0 -0 0 0 1.60297e-013 -1.9233e-013 -1.03339e-012 98.7086 32.8821 -33.4723 -27.9108 -30.1026 67.4086 -0.465149 -19.0255 -2.77763 1.28371e-009 -1.14289e-009 3.59595e-009 2.17712e-009 -1.94898e-009 6.21698e-009 1.28372e-009 -1.14289e-009 3.59593e-009 7.73091 5.47488 0.417314 1.28371e-009 -1.14289e-009 3.59594e-009 2.90554 0.965183 0.102902 1.28372e-009 -1.14289e-009 3.59595e-009 10.2786 0.731801 0.0259123 1.28371e-009 -1.14289e-009 3.59595e-009 2.22167 -0.733487 -0.20892 1.60279e-013 -1.92294e-013 -1.03352e-012 -83.1318 47.9035 1.53913 26.3133 -45.695 -94.8268 0.243253 -13.9449 1.9995 1.98033e-009 -7.0354e-009 -2.8609e-009 3.45933e-009 -1.2127e-008 -4.9317e-009 1.98032e-009 -7.03541e-009 -2.86089e-009 -7.73091 5.47488 -0.417314 1.98033e-009 -7.03541e-009 -2.86089e-009 -2.90554 0.965183 -0.102902 1.98033e-009 -7.0354e-009 -2.86089e-009 -10.2786 0.731801 -0.0259123 1.98034e-009 -7.0354e-009 -2.8609e-009 -2.22167 -0.733487 0.20892 -2.03217e-016 0 -3.88251e-019 -33.0291 -67.5735 -38.8372 -168.193 84.1011 168.278 -0.890433 4.18878 -2.57029 2.03217e-016 0 3.88251e-019 -3.19178 -26.4456 -5.37517 0.985999 58.1895 -1.30773 -2.17961 -18.4975 -6.36073 
-14.4703 70.4345 -4.05401 17.7897 2.23098 -35.9007 -10.5452 19.3629 -4.17 2.12571 -8.14624 -1.48979 -5.59756 -2.22578 -3.21268 6.99079 -20.4062 -3.47163 -0 0 0 -0 0 0 1.8672e-013 -3.29701e-013 -1.09725e-012 99.3292 32.6565 -35.414 -27.9599 -30.3743 67.8397 -0.438404 -18.5052 -2.6958 1.1867e-009 -1.90421e-009 2.20802e-009 2.03348e-009 -3.28063e-009 3.81494e-009 1.1867e-009 -1.90421e-009 2.20801e-009 7.73091 5.47488 0.417314 1.18669e-009 -1.90421e-009 2.20802e-009 2.90554 0.965183 0.102902 1.1867e-009 -1.90421e-009 2.20802e-009 10.2786 0.731801 0.0259123 1.18669e-009 -1.90421e-009 2.20803e-009 2.22167 -0.733487 -0.20892 1.86759e-013 -3.29668e-013 -1.09738e-012 -81.7481 48.402 0.250734 25.7265 -46.8767 -97.2839 0.276342 -14.8556 2.13579 1.90005e-009 -4.68416e-009 -1.69046e-009 3.31172e-009 -8.06682e-009 -2.91008e-009 1.90005e-009 -4.68415e-009 -1.69044e-009 -7.73091 5.47488 -0.417314 1.90005e-009 -4.68416e-009 -1.69045e-009 -2.90554 0.965183 -0.102902 1.90005e-009 -4.68415e-009 -1.69045e-009 -10.2786 0.731801 -0.0259123 1.90006e-009 -4.68415e-009 -1.69046e-009 -2.22167 -0.733487 0.20892 -2.03217e-016 0 -3.88251e-019 -33.6103 -69.296 -39.6791 -127.471 88.5811 127.467 -0.875534 3.34392 -2.60668 2.03217e-016 0 3.88251e-019 -2.58984 -23.8331 -5.04143 0.946342 57.5191 -1.27612 -2.53758 -13.7179 -9.11974 
-16.8024 70.7805 -1.14215 17.5014 2.08727 -36.5096 -10.1822 19.167 -4.78594 2.33516 -7.91824 -1.61277 -5.30137 -2.44106 -2.75693 6.81359 -20.0006 -2.67965 -0 0 0 -0 0 0 2.26717e-013 -4.41378e-013 -1.14441e-012 99.8881 32.3566 -37.2009 -28.005 -30.6387 68.2639 -0.41175 -17.9528 -2.60976 9.93395e-010 -2.68989e-009 5.94143e-010 1.72698e-009 -4.65656e-009 1.02122e-009 9.93396e-010 -2.68989e-009 5.94131e-010 7.73091 5.47488 0.417314 9.93394e-010 -2.68989e-009 5.94143e-010 2.90554 0.965183 0.102902 9.934e-010 -2.68989e-009 5.94143e-010 10.2786 0.731801 0.0259123 9.93392e-010 -2.68989e-009 5.94146e-010 2.22167 -0.733487 -0.20892 2.268e-013 -4.4135e-013 -1.14454e-012 -80.5928 48.8106 -0.721392 25.0518 -47.9836 -99.7884 0.31025 -15.6906 2.26217 1.85704e-009 -1.95092e-009 -3.04314e-010 3.2268e-009 -3.34646e-009 -5.15097e-010 1.85704e-009 -1.95091e-009 -3.04288e-010 -7.73091 5.47488 -0.417314 1.85704e-009 -1.95092e-009 -3.043e-010 -2.90554 0.965183 -0.102902 1.85704e-009 -1.95092e-009 -3.04306e-010 -10.2786 0.731801 -0.0259123 1.85704e-009 -1.95092e-009 -3.04319e-010 -2.22167 -0.733487 0.20892 -2.03217e-016 0 -3.88251e-019 -33.0514 -70.4897 -39.4171 -12.8185 85.3091 12.7222 -0.863877 2.83812 -2.85328 2.03217e-016 0 3.88251e-019 -2.04935 -21.2538 -4.86039 0.90516 56.8221 -1.25199 -2.32716 -8.46331 -11.8507 
-19.2105 71.158 1.80683 17.1746 1.85083 -37.0992 -9.8436 19.0167 -5.30163 2.48179 -7.66109 -1.71539 -5.04927 -2.6031 -2.35623 6.65316 -19.6029 -1.98546 -0 0 0 -0 0 0 2.9096e-013 -4.45286e-013 -1.15131e-012 100.384 31.9011 -38.7697 -28.0434 -30.8774 68.6511 -0.397153 -17.6324 -2.56024 6.7561e-010 -3.13122e-009 -6.38347e-010 1.19902e-009 -5.43226e-009 -1.11436e-009 6.75608e-010 -3.13121e-009 -6.38356e-010 7.73091 5.47488 0.417314 6.75609e-010 -3.13122e-009 -6.38344e-010 2.90554 0.965183 0.102902 6.75615e-010 -3.13122e-009 -6.38346e-010 10.2786 0.731801 0.0259123 6.75608e-010 -3.13122e-009 -6.38344e-010 2.22167 -0.733487 -0.20892 2.91051e-013 -4.45268e-013 -1.15146e-012 -79.651 49.232 -1.44237 24.3593 -48.9205 -102.127 0.3349 -16.2425 2.34657 1.94846e-009 -3.57428e-010 6.18023e-010 3.37843e-009 -5.93845e-010 1.07962e-009 1.94846e-009 -3.57412e-010 6.18052e-010 -7.73091 5.47488 -0.417314 1.94846e-009 -3.57425e-010 6.18039e-010 -2.90554 0.965183 -0.102902 1.94846e-009 -3.57424e-010 6.18031e-010 -10.2786 0.731801 -0.0259123 1.94846e-009 -3.5742e-010 6.18017e-010 -2.22167 -0.733487 0.20892 -2.03217e-016 0 -3.88251e-019 -31.9541 -71.1738 -38.5832 -5.38805 79.8509 5.19582 -0.840138 2.9459 -3.23118 2.03217e-016 0 3.88251e-019 -1.78107 -18.7365 -5.03472 0.868045 56.1889 -1.24045 -1.58266 -3.48609 -14.0299 
-21.6622 71.5467 4.79755 16.7791 1.51097 -37.695 -9.5123 18.9278 -5.68629 2.54109 -7.36193 -1.79069 -4.85473 -2.70483 -2.01991 6.5403 -19.2156 -1.39907 -0 0 0 -0 0 0 4.27529e-013 -2.48506e-013 -1.11693e-012 100.818 31.2474 -40.1187 -28.0764 -31.0903 68.9949 -0.399717 -17.6847 -2.56837 6.97539e-011 -3.10766e-009 -1.43707e-009 1.66807e-010 -5.39831e-009 -2.50374e-009 6.97518e-011 -3.10766e-009 -1.43708e-009 7.73091 5.47488 0.417314 6.97525e-011 -3.10766e-009 -1.43707e-009 2.90554 0.965183 0.102902 6.97592e-011 -3.10766e-009 -1.43707e-009 10.2786 0.731801 0.0259123 6.97515e-011 -3.10766e-009 -1.43706e-009 2.22167 -0.733487 -0.20892 4.27569e-013 -2.48505e-013 -1.11713e-012 -78.9255 49.693 -1.88424 23.6965 -49.7438 -104.228 0.342448 -16.3981 2.37058 2.39709e-009 -6.1927e-010 8.58388e-010 4.15453e-009 -1.04325e-009 1.49889e-009 2.39709e-009 -6.19255e-010 8.58413e-010 -7.73091 5.47488 -0.417314 2.39709e-009 -6.19268e-010 8.58402e-010 -2.90554 0.965183 -0.102902 2.39709e-009 -6.19267e-010 8.58395e-010 -10.2786 0.731801 -0.0259123 2.3971e-009 -6.19264e-010 8.58383e-010 -2.22167 -0.733487 0.20892 -2.03217e-016 0 -3.88251e-019 -30.103 -71.1887 -36.9759 -3.08297 74.0436 2.78547 -0.787473 3.86177 -3.8425 2.03217e-016 0 3.88251e-019 -1.74719 -16.1971 -5.65498 0.825343 55.4716 -1.24447 -0.358828 1.63625 -15.751 
-24.1273 71.9186 7.82541 16.305 1.09842 -38.3026 -9.17563 18.8816 -5.96441 2.53282 -7.02524 -1.84248 -4.70256 -2.75249 -1.73388 6.48257 -18.825 -0.896555 -0 0 0 -0 0 0 6.15654e-013 8.15129e-014 -1.05209e-012 101.177 30.4697 -41.2784 -28.1061 -31.2874 69.3092 -0.411996 -17.9453 -2.6088 -7.5711e-010 -2.82327e-009 -2.08942e-009 -1.24937e-009 -4.91097e-009 -3.64287e-009 -7.5711e-010 -2.82326e-009 -2.08942e-009 7.73091 5.47488 0.417314 -7.57111e-010 -2.82326e-009 -2.08941e-009 2.90554 0.965183 0.102902 -7.57104e-010 -2.82326e-009 -2.08941e-009 10.2786 0.731801 0.0259123 -7.57112e-010 -2.82326e-009 -2.08941e-009 2.22167 -0.733487 -0.20892 6.15603e-013 8.14905e-014 -1.05235e-012 -78.4425 50.1476 -2.012 23.0559 -50.5147 -106.15 0.337549 -16.2876 2.35365 3.08549e-009 -1.8216e-009 7.91508e-010 5.34853e-009 -3.11528e-009 1.38939e-009 3.08549e-009 -1.82159e-009 7.91526e-010 -7.73091 5.47488 -0.417314 3.08549e-009 -1.8216e-009 7.91518e-010 -2.90554 0.965183 -0.102902 3.08548e-009 -1.8216e-009 7.91515e-010 -10.2786 0.731801 -0.0259123 3.08549e-009 -1.82159e-009 7.91505e-010 -2.22167 -0.733487 0.20892 -2.03217e-016 0 -3.88251e-019 -27.3893 -70.5459 -34.4948 -1.97489 67.8017 1.55569 -0.680692 5.39562 -4.693 2.03217e-016 0 3.88251e-019 -1.79065 -13.6546 -6.57955 0.776427 54.6793 -1.25973 1.30043 7.07495 -17.3399 
-26.5774 72.2439 10.8851 15.8174 0.622406 -38.8641 -8.87506 18.8591 -6.18905 2.49667 -6.67667 -1.88374 -4.57931 -2.75722 -1.48788 6.41446 -18.44 -0.469866 -0 0 0 -0 0 0 7.62731e-013 3.86285e-013 -9.50968e-013 101.443 29.6631 -42.2362 -28.1321 -31.4662 69.594 -0.425344 -18.2214 -2.65178 -1.48721e-009 -2.3962e-009 -2.49769e-009 -2.5034e-009 -4.17424e-009 -4.35791e-009 -1.48721e-009 -2.3962e-009 -2.49769e-009 7.73091 5.47488 0.417314 -1.48721e-009 -2.3962e-009 -2.49769e-009 2.90554 0.965183 0.102902 -1.4872e-009 -2.3962e-009 -2.49769e-009 10.2786 0.731801 0.0259123 -1.48721e-009 -2.3962e-009 -2.49768e-009 2.22167 -0.733487 -0.20892 7.62588e-013 3.86241e-013 -9.51286e-013 -78.211 50.5846 -1.8891 22.4686 -51.169 -107.823 0.327745 -16.0681 2.32005 3.60049e-009 -3.04044e-009 6.27207e-010 6.24252e-009 -5.21737e-009 1.11026e-009 3.60049e-009 -3.04044e-009 6.27219e-010 -7.73091 5.47488 -0.417314 3.60049e-009 -3.04044e-009 6.27213e-010 -2.90554 0.965183 -0.102902 3.60048e-009 -3.04044e-009 6.27214e-010 -10.2786 0.731801 -0.0259123 3.60049e-009 -3.04044e-009 6.27208e-010 -2.22167 -0.733487 0.20892 -2.03217e-016 0 -3.88251e-019 -24.696 -69.5381 -31.9544 -1.39216 61.6874 0.836868 -0.499038 7.24552 -5.55991 2.03217e-016 0 3.88251e-019 -1.9453 -11.2928 -7.66273 0.740751 54.1379 -1.28031 2.9784 11.806 -18.5098 
